<svg width="48" height="48" viewBox="0 0 48 48" fill="none" xmlns="http://www.w3.org/2000/svg">
<g clip-path="url(#clip0_61500_42)">
<path d="M6 0H42C45.3 0 48 2.7 48 6V42C48 45.3 45.3 48 42 48H6C2.7 48 0 45.3 0 42V6C0 2.7 2.7 0 6 0Z" fill="url(#paint0_linear_61500_42)"/>
<path d="M31.8 7.5H16.2C11.4 7.5 7.5 11.55 7.5 16.35V31.65C7.5 36.45 11.4 40.5 16.2 40.5H31.8C36.6 40.5 40.5 36.45 40.5 31.65V16.35C40.5 11.55 36.6 7.5 31.8 7.5ZM37.5 31.35C37.5 34.65 34.8 37.5 31.5 37.5H16.5C13.2 37.5 10.5 34.65 10.5 31.35V16.5C10.5 13.2 13.05 10.5 16.5 10.5H31.5C34.8 10.5 37.5 13.35 37.5 16.65V31.35Z" fill="white"/>
<path d="M24 15.6C19.35 15.45 15.45 19.2 15.3 23.85C15.15 28.5 18.9 32.4 23.55 32.55C28.2 32.7 32.1 28.95 32.25 24.3V24.15C32.4 19.35 28.65 15.6 24 15.6ZM24 29.4C21 29.4 18.45 27 18.45 24C18.45 21 20.85 18.45 23.85 18.45C26.85 18.45 29.4 20.85 29.4 23.85V24C29.4 27 27 29.4 24 29.4Z" fill="white"/>
<path d="M32.7 16.95C33.6941 16.95 34.5 16.0769 34.5 15C34.5 13.923 33.6941 13.05 32.7 13.05C31.7059 13.05 30.9 13.923 30.9 15C30.9 16.0769 31.7059 16.95 32.7 16.95Z" fill="white"/>
</g>
<defs>
<linearGradient id="paint0_linear_61500_42" x1="8.70525" y1="50.4912" x2="39.2948" y2="-2.4912" gradientUnits="userSpaceOnUse">
<stop stop-color="#FEC053"/>
<stop offset="0.327" stop-color="#F2203E"/>
<stop offset="0.648" stop-color="#B729A8"/>
<stop offset="1" stop-color="#5342D6"/>
</linearGradient>
<clipPath id="clip0_61500_42">
<rect width="48" height="48" fill="white"/>
</clipPath>
</defs>
</svg>
