<svg width="48" height="48" viewBox="0 0 48 48" fill="none" xmlns="http://www.w3.org/2000/svg">
<path d="M44.6059 0H3.39415C1.51961 0 0 1.51961 0 3.39415V44.6059C0 46.4804 1.51961 48 3.39415 48H44.6059C46.4804 48 48 46.4804 48 44.6059V3.39415C48 1.51961 46.4804 0 44.6059 0Z" fill="#4881C2"/>
<g style="mix-blend-mode:overlay" opacity="0.3">
<path d="M37.6275 12.7111L34.6203 14.9342L29.58 12.8978L26.2911 15.0191L25.4426 21.1286L19.4213 21.21L13.0268 16.0815L11.7811 15.5146L12.1477 17.4663L15.5147 21.2575L12.2902 22.5711L17.8634 25.9652L21.5393 30.476L14.5813 34.2096L9.57153 33.0522L24.5227 47.9864H44.6059C45.5061 47.9864 46.3694 47.6288 47.0059 46.9923C47.6425 46.3558 48 45.4925 48 44.5923V23.0802L37.6275 12.7111Z" fill="#0A0A0A"/>
</g>
<path d="M38.4251 15.053C37.3473 15.533 36.2029 15.8466 35.031 15.983C36.2685 15.2461 37.1943 14.0825 37.6343 12.7111C36.473 13.4008 35.2022 13.8864 33.877 14.1468C33.065 13.2793 32.0108 12.676 30.8515 12.4155C29.6921 12.155 28.4812 12.2492 27.3761 12.6859C26.271 13.1226 25.3228 13.8815 24.6548 14.8642C23.9867 15.8469 23.6297 17.0078 23.63 18.196C23.63 18.6529 23.6813 19.1083 23.7828 19.5537C21.4287 19.4348 19.1259 18.8219 17.0243 17.7547C14.9226 16.6875 13.0691 15.1899 11.5842 13.3594C10.8277 14.6631 10.5962 16.2061 10.9367 17.6745C11.2771 19.1429 12.164 20.4265 13.4171 21.2643C12.4772 21.2343 11.558 20.9806 10.7357 20.5244V20.5991C10.7363 21.9659 11.2098 23.2904 12.076 24.3477C12.9421 25.4051 14.1475 26.1301 15.4875 26.3997C14.9787 26.5389 14.4536 26.6096 13.9262 26.6101C13.5524 26.6103 13.1796 26.5739 12.8129 26.5015C13.19 27.6755 13.9241 28.7025 14.9128 29.4394C15.9015 30.1762 17.0956 30.5861 18.3284 30.6118C16.2317 32.2578 13.6423 33.1508 10.9767 33.1472C10.5047 33.1481 10.0331 33.1198 9.5647 33.0624C12.2708 34.8018 15.4203 35.7256 18.6372 35.7234C29.5257 35.7234 35.479 26.7051 35.479 18.8816V18.1146C36.6361 17.2783 37.6339 16.2414 38.4251 15.053V15.053Z" fill="white"/>
</svg>
