<svg width="48" height="48" viewBox="0 0 48 48" fill="none" xmlns="http://www.w3.org/2000/svg">
<path d="M44.6059 0H3.39415C1.51961 0 0 1.51961 0 3.39415V44.6059C0 46.4804 1.51961 48 3.39415 48H44.6059C46.4804 48 48 46.4804 48 44.6059V3.39415C48 1.51961 46.4804 0 44.6059 0Z" fill="#FF0000"/>
<g style="mix-blend-mode:multiply" opacity="0.2">
<path d="M48 44.6059V38.8969L33.1268 24L15.4365 34.213L29.0844 48H44.6058C45.506 48 46.3693 47.6424 47.0058 47.0059C47.6424 46.3694 48 45.506 48 44.6059Z" fill="black"/>
</g>
<path d="M33.1234 24L15.4365 13.787V34.213L33.1234 24Z" fill="white"/>
</svg>
